# xmcd
# Copyright (C) 1995-1998 Ti Kan
#
# Track frame offsets:
#       150
#       11512
#       18235
#       29440
#       44257
#       49500
#       56767
#       69005
#       75202
#       85605
#       98805
#       109965
#       113572
#       121095
#       129895
#       139922
#       150577
#       158685
#       165555
#       175815
#       185790
#       197390
#       207927
#       213035
#       248908
#
# Disc length: 4166 seconds
#
# Revision: 0
# Processed by: cddbd v1.5.2PL0 Copyright (c) Steve Scherf et al.
# Submitted via: CD-Transfer v1.0
#
DISCID=31104419
DTITLE=Frida - 
DYEAR=1234
DGENRE=
TTITLE0=Benediction And Dream
TTITLE1=The Floating Bed
TTITLE2=El Conejo
TTITLE3=Paloma Negra
TTITLE4=Self - Portrait With Hair Down
TTITLE5=Alcoba Azul
TTITLE6=Carabina 30/30
TTITLE7=Solo Tu
TTITLE8=El Gusto
TTITLE9=The Journey
TTITLE10=El Antifaz
TTITLE11=The Suicide Of Dorothy Hale
TTITLE12=La Calavera
TTITLE13=La Bruja
TTITLE14=Portrait Of Lupe
TTITLE15=La Llarona
TTITLE16=Estreja Oscura
TTITLE17=Still Life
TTITLE18=Viva La Vida
TTITLE19=The Departuure
TTITLE20=Coyacan And Variatios
TTITLE21=La Llarona
TTITLE22=Burning Bed
TTITLE23=Burn It Blue
TTITLE24=Data Track
EXTD=
EXTT0=
EXTT1=
EXTT2=
EXTT3=
EXTT4=
EXTT5=
EXTT6=
EXTT7=
EXTT8=
EXTT9=
EXTT10=
EXTT11=
EXTT12=
EXTT13=
EXTT14=
EXTT15=
EXTT16=
EXTT17=
EXTT18=
EXTT19=
EXTT20=
EXTT21=
EXTT22=
EXTT23=
EXTT24=
PLAYORDER=
